<mxfile host="app.diagrams.net" agent="Mozilla/5.0 (Windows NT 10.0; Win64; x64) AppleWebKit/537.36 (KHTML, like Gecko) Chrome/136.0.0.0 Safari/537.36" version="27.0.6">
  <diagram name="Página-1" id="GqpKraqMxvGwDh3GI_DF">
    <mxGraphModel dx="1389" dy="784" grid="1" gridSize="10" guides="1" tooltips="1" connect="1" arrows="1" fold="1" page="1" pageScale="1" pageWidth="827" pageHeight="1169" math="0" shadow="0">
      <root>
        <mxCell id="0" />
        <mxCell id="1" parent="0" />
        <mxCell id="oWVLYpe5fWkyTyjLEMQV-27" value="&#xa;" style="whiteSpace=wrap;strokeWidth=2;" vertex="1" parent="1">
          <mxGeometry x="40" y="500" width="774" height="813" as="geometry" />
        </mxCell>
        <mxCell id="oWVLYpe5fWkyTyjLEMQV-29" value="Acessar Interface do Gestor" style="whiteSpace=wrap;strokeWidth=2;" vertex="1" parent="1">
          <mxGeometry x="448" y="527" width="258" height="54" as="geometry" />
        </mxCell>
        <mxCell id="oWVLYpe5fWkyTyjLEMQV-30" value="Visualizar Solicitações Pendentes" style="whiteSpace=wrap;strokeWidth=2;" vertex="1" parent="1">
          <mxGeometry x="448" y="631" width="260" height="78" as="geometry" />
        </mxCell>
        <mxCell id="oWVLYpe5fWkyTyjLEMQV-31" value="Analisar Detalhes da Solicitação" style="whiteSpace=wrap;strokeWidth=2;" vertex="1" parent="1">
          <mxGeometry x="448" y="759" width="260" height="78" as="geometry" />
        </mxCell>
        <mxCell id="oWVLYpe5fWkyTyjLEMQV-32" value="Aprovar/Rejeitar Solicitação" style="whiteSpace=wrap;strokeWidth=2;" vertex="1" parent="1">
          <mxGeometry x="448" y="887" width="260" height="78" as="geometry" />
        </mxCell>
        <mxCell id="oWVLYpe5fWkyTyjLEMQV-33" value="Atribuir Motorista e Veículo" style="whiteSpace=wrap;strokeWidth=2;" vertex="1" parent="1">
          <mxGeometry x="431" y="1050" width="257" height="54" as="geometry" />
        </mxCell>
        <mxCell id="oWVLYpe5fWkyTyjLEMQV-34" value="Enviar Notificação ao Solicitante" style="whiteSpace=wrap;strokeWidth=2;" vertex="1" parent="1">
          <mxGeometry x="55" y="1200" width="260" height="78" as="geometry" />
        </mxCell>
        <mxCell id="oWVLYpe5fWkyTyjLEMQV-35" value="Atualizar Calendário de Viagens" style="whiteSpace=wrap;strokeWidth=2;" vertex="1" parent="1">
          <mxGeometry x="365" y="1200" width="260" height="78" as="geometry" />
        </mxCell>
        <mxCell id="oWVLYpe5fWkyTyjLEMQV-36" value="Registrar Decisão&#xa;no Sistema" style="whiteSpace=wrap;strokeWidth=2;" vertex="1" parent="1">
          <mxGeometry x="829" y="1038" width="260" height="78" as="geometry" />
        </mxCell>
        <mxCell id="oWVLYpe5fWkyTyjLEMQV-37" value="Verificar Disponibilidade&#xa;de Recursos" style="whiteSpace=wrap;strokeWidth=2;" vertex="1" parent="1">
          <mxGeometry x="829" y="1188" width="260" height="102" as="geometry" />
        </mxCell>
        <mxCell id="oWVLYpe5fWkyTyjLEMQV-38" value="Atualizar Status&#xa;da Solicitação" style="whiteSpace=wrap;strokeWidth=2;" vertex="1" parent="1">
          <mxGeometry x="55" y="1387" width="260" height="78" as="geometry" />
        </mxCell>
        <mxCell id="oWVLYpe5fWkyTyjLEMQV-39" value="Exibir Alerta de&#xa;Recursos Indisponíveis" style="whiteSpace=wrap;strokeWidth=2;" vertex="1" parent="1">
          <mxGeometry x="669" y="1387" width="260" height="78" as="geometry" />
        </mxCell>
        <mxCell id="oWVLYpe5fWkyTyjLEMQV-40" value="" style="curved=1;startArrow=none;endArrow=block;exitX=0.51;exitY=1;entryX=0.5;entryY=0;rounded=0;" edge="1" parent="1" target="oWVLYpe5fWkyTyjLEMQV-29">
          <mxGeometry relative="1" as="geometry">
            <Array as="points" />
            <mxPoint x="577" y="452" as="sourcePoint" />
          </mxGeometry>
        </mxCell>
        <mxCell id="oWVLYpe5fWkyTyjLEMQV-41" value="" style="curved=1;startArrow=none;endArrow=block;exitX=0.5;exitY=1;entryX=0.5;entryY=0;rounded=0;" edge="1" parent="1" source="oWVLYpe5fWkyTyjLEMQV-29" target="oWVLYpe5fWkyTyjLEMQV-30">
          <mxGeometry relative="1" as="geometry">
            <Array as="points" />
          </mxGeometry>
        </mxCell>
        <mxCell id="oWVLYpe5fWkyTyjLEMQV-42" value="" style="curved=1;startArrow=none;endArrow=block;exitX=0.5;exitY=1;entryX=0.5;entryY=0;rounded=0;" edge="1" parent="1" source="oWVLYpe5fWkyTyjLEMQV-30" target="oWVLYpe5fWkyTyjLEMQV-31">
          <mxGeometry relative="1" as="geometry">
            <Array as="points" />
          </mxGeometry>
        </mxCell>
        <mxCell id="oWVLYpe5fWkyTyjLEMQV-43" value="" style="curved=1;startArrow=none;endArrow=block;exitX=0.5;exitY=1;entryX=0.5;entryY=0;rounded=0;" edge="1" parent="1" source="oWVLYpe5fWkyTyjLEMQV-31" target="oWVLYpe5fWkyTyjLEMQV-32">
          <mxGeometry relative="1" as="geometry">
            <Array as="points" />
          </mxGeometry>
        </mxCell>
        <mxCell id="oWVLYpe5fWkyTyjLEMQV-44" value="Aprovada" style="curved=1;startArrow=none;endArrow=block;exitX=0.46;exitY=1;entryX=0.5;entryY=-0.01;rounded=0;" edge="1" parent="1" source="oWVLYpe5fWkyTyjLEMQV-32" target="oWVLYpe5fWkyTyjLEMQV-33">
          <mxGeometry relative="1" as="geometry">
            <Array as="points">
              <mxPoint x="560" y="1001" />
            </Array>
          </mxGeometry>
        </mxCell>
        <mxCell id="oWVLYpe5fWkyTyjLEMQV-45" value="Rejeitada" style="curved=1;startArrow=none;endArrow=block;exitX=0;exitY=0.78;entryX=0.41;entryY=0;rounded=0;" edge="1" parent="1" source="oWVLYpe5fWkyTyjLEMQV-32" target="oWVLYpe5fWkyTyjLEMQV-34">
          <mxGeometry relative="1" as="geometry">
            <Array as="points">
              <mxPoint x="131" y="1001" />
              <mxPoint x="131" y="1152" />
            </Array>
          </mxGeometry>
        </mxCell>
        <mxCell id="oWVLYpe5fWkyTyjLEMQV-46" value="" style="curved=1;startArrow=none;endArrow=block;exitX=0.18;exitY=0.99;entryX=0.75;entryY=0;rounded=0;" edge="1" parent="1" source="oWVLYpe5fWkyTyjLEMQV-33" target="oWVLYpe5fWkyTyjLEMQV-34">
          <mxGeometry relative="1" as="geometry">
            <Array as="points">
              <mxPoint x="330" y="1152" />
            </Array>
          </mxGeometry>
        </mxCell>
        <mxCell id="oWVLYpe5fWkyTyjLEMQV-47" value="" style="curved=1;startArrow=none;endArrow=block;exitX=0.41;exitY=0.99;entryX=0.5;entryY=0;rounded=0;" edge="1" parent="1" source="oWVLYpe5fWkyTyjLEMQV-33" target="oWVLYpe5fWkyTyjLEMQV-35">
          <mxGeometry relative="1" as="geometry">
            <Array as="points">
              <mxPoint x="495" y="1152" />
            </Array>
          </mxGeometry>
        </mxCell>
        <mxCell id="oWVLYpe5fWkyTyjLEMQV-48" value="&lt;&lt;include&gt;&gt;" style="curved=1;dashed=1;dashPattern=2 3;startArrow=none;endArrow=block;exitX=0.8;exitY=1;entryX=0.04;entryY=-0.01;rounded=0;" edge="1" parent="1" source="oWVLYpe5fWkyTyjLEMQV-32" target="oWVLYpe5fWkyTyjLEMQV-36">
          <mxGeometry relative="1" as="geometry">
            <Array as="points">
              <mxPoint x="730" y="1001" />
            </Array>
          </mxGeometry>
        </mxCell>
        <mxCell id="oWVLYpe5fWkyTyjLEMQV-49" value="&lt;&lt;include&gt;&gt;" style="curved=1;dashed=1;dashPattern=2 3;startArrow=none;endArrow=block;exitX=0.71;exitY=0.99;entryX=0;entryY=0.05;rounded=0;" edge="1" parent="1" source="oWVLYpe5fWkyTyjLEMQV-33" target="oWVLYpe5fWkyTyjLEMQV-37">
          <mxGeometry relative="1" as="geometry">
            <Array as="points">
              <mxPoint x="712" y="1152" />
            </Array>
          </mxGeometry>
        </mxCell>
        <mxCell id="oWVLYpe5fWkyTyjLEMQV-50" value="Include" style="curved=1;dashed=1;dashPattern=2 3;startArrow=none;endArrow=block;exitX=0.5;exitY=1;entryX=0.5;entryY=0;rounded=0;" edge="1" parent="1" source="oWVLYpe5fWkyTyjLEMQV-34" target="oWVLYpe5fWkyTyjLEMQV-38">
          <mxGeometry relative="1" as="geometry">
            <Array as="points" />
          </mxGeometry>
        </mxCell>
        <mxCell id="oWVLYpe5fWkyTyjLEMQV-51" value="&lt;&lt;extend&gt;&gt;" style="curved=1;dashed=1;dashPattern=2 3;startArrow=none;endArrow=block;exitX=0.5;exitY=1;entryX=0.5;entryY=0;rounded=0;" edge="1" parent="1" source="oWVLYpe5fWkyTyjLEMQV-37" target="oWVLYpe5fWkyTyjLEMQV-39">
          <mxGeometry relative="1" as="geometry">
            <Array as="points">
              <mxPoint x="959" y="1315" />
              <mxPoint x="799" y="1351" />
            </Array>
          </mxGeometry>
        </mxCell>
        <mxCell id="oWVLYpe5fWkyTyjLEMQV-52" value="" style="curved=1;dashed=1;dashPattern=2 3;startArrow=none;endArrow=block;exitX=0.6;exitY=0;entryX=0.64;entryY=0.99;rounded=0;" edge="1" parent="1" source="oWVLYpe5fWkyTyjLEMQV-39" target="oWVLYpe5fWkyTyjLEMQV-33">
          <mxGeometry relative="1" as="geometry">
            <Array as="points">
              <mxPoint x="851" y="1351" />
              <mxPoint x="660" y="1315" />
              <mxPoint x="660" y="1152" />
            </Array>
          </mxGeometry>
        </mxCell>
        <mxCell id="oWVLYpe5fWkyTyjLEMQV-53" value="Gestor&lt;div&gt;&lt;br&gt;&lt;/div&gt;" style="shape=umlActor;verticalLabelPosition=bottom;verticalAlign=top;html=1;outlineConnect=0;" vertex="1" parent="1">
          <mxGeometry x="557" y="350" width="42" height="80" as="geometry" />
        </mxCell>
      </root>
    </mxGraphModel>
  </diagram>
</mxfile>
